<svg width="800" height="400" viewBox="0 0 800 400" xmlns="http://www.w3.org/2000/svg">
      <rect width="800" height="400" fill="#1e293b" />
      <g opacity="0.8">
        <rect x="50" y="60" width="40" height="40" rx="4" fill="#0f172a" /><rect x="100" y="60" width="40" height="40" rx="4" fill="#0f172a" /><rect x="150" y="60" width="40" height="40" rx="4" fill="#0f172a" /><rect x="200" y="60" width="40" height="40" rx="4" fill="#0f172a" /><rect x="250" y="60" width="40" height="40" rx="4" fill="#0f172a" /><rect x="300" y="60" width="40" height="40" rx="4" fill="#0f172a" /><rect x="350" y="60" width="40" height="40" rx="4" fill="#0f172a" /><rect x="400" y="60" width="40" height="40" rx="4" fill="#0f172a" /><rect x="450" y="60" width="40" height="40" rx="4" fill="#0f172a" /><rect x="500" y="60" width="40" height="40" rx="4" fill="#0f172a" /><rect x="65" y="110" width="40" height="40" rx="4" fill="#0f172a" /><rect x="115" y="110" width="40" height="40" rx="4" fill="#0f172a" /><rect x="165" y="110" width="40" height="40" rx="4" fill="#0f172a" /><rect x="215" y="110" width="40" height="40" rx="4" fill="#0f172a" /><rect x="265" y="110" width="40" height="40" rx="4" fill="#0f172a" /><rect x="315" y="110" width="40" height="40" rx="4" fill="#0f172a" /><rect x="365" y="110" width="40" height="40" rx="4" fill="#0f172a" /><rect x="415" y="110" width="40" height="40" rx="4" fill="#0f172a" /><rect x="465" y="110" width="40" height="40" rx="4" fill="#0f172a" /><rect x="515" y="110" width="40" height="40" rx="4" fill="#0f172a" /><rect x="80" y="160" width="40" height="40" rx="4" fill="#0f172a" /><rect x="130" y="160" width="40" height="40" rx="4" fill="#0f172a" /><rect x="180" y="160" width="40" height="40" rx="4" fill="#0f172a" /><rect x="230" y="160" width="40" height="40" rx="4" fill="#0f172a" /><rect x="280" y="160" width="40" height="40" rx="4" fill="#0f172a" /><rect x="330" y="160" width="40" height="40" rx="4" fill="#0f172a" /><rect x="380" y="160" width="40" height="40" rx="4" fill="#0f172a" /><rect x="430" y="160" width="40" height="40" rx="4" fill="#0f172a" /><rect x="480" y="160" width="40" height="40" rx="4" fill="#0f172a" /><rect x="95" y="210" width="40" height="40" rx="4" fill="#0f172a" /><rect x="145" y="210" width="40" height="40" rx="4" fill="#0f172a" /><rect x="195" y="210" width="40" height="40" rx="4" fill="#0f172a" /><rect x="245" y="210" width="40" height="40" rx="4" fill="#0f172a" /><rect x="295" y="210" width="40" height="40" rx="4" fill="#0f172a" /><rect x="345" y="210" width="40" height="40" rx="4" fill="#0f172a" /><rect x="395" y="210" width="40" height="40" rx="4" fill="#0f172a" /><rect x="600" y="60" width="40" height="40" rx="4" fill="#3b82f6" /><rect x="650" y="60" width="40" height="40" rx="4" fill="#3b82f6" /><rect x="700" y="60" width="40" height="40" rx="4" fill="#3b82f6" /><rect x="600" y="110" width="40" height="40" rx="4" fill="#3b82f6" /><rect x="650" y="110" width="40" height="40" rx="4" fill="#3b82f6" /><rect x="700" y="110" width="40" height="40" rx="4" fill="#3b82f6" /><rect x="600" y="160" width="40" height="40" rx="4" fill="#3b82f6" /><rect x="650" y="160" width="40" height="40" rx="4" fill="#3b82f6" /><rect x="700" y="160" width="40" height="40" rx="4" fill="#3b82f6" /><rect x="600" y="210" width="40" height="40" rx="4" fill="#3b82f6" /><rect x="650" y="210" width="40" height="40" rx="4" fill="#3b82f6" /><rect x="700" y="210" width="40" height="40" rx="4" fill="#3b82f6" />
      </g>
      <text x="400" y="350" font-family="Arial, sans-serif" font-size="24" fill="#e2e8f0" text-anchor="middle" font-weight="bold">NUMPAD DATA ENTRY</text>
    </svg>